<?xml version="1.0" standalone="no"?><!DOCTYPE svg PUBLIC "-//W3C//DTD SVG 1.1//EN" "http://www.w3.org/Graphics/SVG/1.1/DTD/svg11.dtd"><svg t="1616395677235" class="icon" viewBox="0 0 1024 1024" version="1.1" xmlns="http://www.w3.org/2000/svg" p-id="1160" data-spm-anchor-id="a313x.7781069.0.i1" xmlns:xlink="http://www.w3.org/1999/xlink" width="200" height="200"><defs><style type="text/css"></style></defs><path d="M608 416h-192a32 32 0 1 1 0-64h192a32 32 0 0 1 0 64z m0 128h-192a32 32 0 1 1 0-64h192a32 32 0 0 1 0 64z m-128 128h-64a32 32 0 0 1 0-64h64a32 32 0 0 1 0 64z m256 128H288a32 32 0 0 1-32-32V256a32 32 0 0 1 32-32h448a32 32 0 0 1 32 32v512a32 32 0 0 1-32 32z m-416-64h384V288H320v448z" p-id="1161" fill="#C7C7CC"></path></svg>