<?xml version="1.0" standalone="no"?><!DOCTYPE svg PUBLIC "-//W3C//DTD SVG 1.1//EN" "http://www.w3.org/Graphics/SVG/1.1/DTD/svg11.dtd"><svg t="1618470552746" class="icon" viewBox="0 0 1024 1024" version="1.1" xmlns="http://www.w3.org/2000/svg" p-id="2286" data-spm-anchor-id="a313x.7781069.0.i1" width="200" height="200" xmlns:xlink="http://www.w3.org/1999/xlink"><defs><style type="text/css"></style></defs><path d="M512 64C264.6 64 64 264.6 64 512s200.6 448 448 448 448-200.6 448-448S759.4 64 512 64z m0 840c-216.1 0-392-175.9-392-392s175.9-392 392-392 392 175.9 392 392-175.9 392-392 392z" p-id="2287" fill="#1E90FF"></path><path d="M706.2 484h-168V260c0-15.5-12.5-28-28-28s-28 12.5-28 28v252c0 15.5 12.5 28 28 28h196c15.5 0 28-12.5 28-28s-12.5-28-28-28z" p-id="2288" fill="#1E90FF"></path></svg>