<?xml version="1.0" standalone="no"?><!DOCTYPE svg PUBLIC "-//W3C//DTD SVG 1.1//EN" "http://www.w3.org/Graphics/SVG/1.1/DTD/svg11.dtd"><svg t="1618471385774" class="icon" viewBox="0 0 1024 1024" version="1.1" xmlns="http://www.w3.org/2000/svg" p-id="4153" xmlns:xlink="http://www.w3.org/1999/xlink" width="200" height="200"><defs><style type="text/css"></style></defs><path d="M885.28 659.52a48 48 0 0 1-31.2-39.84V450.72c0-160-153.92-266.08-220-299.36a131.2 131.2 0 0 0-37.76-72.96A118.88 118.88 0 0 0 513.44 48h-2.88a118.72 118.72 0 0 0-82.88 30.4 132.64 132.64 0 0 0-37.92 72.96c-65.92 33.28-219.84 139.36-219.84 299.36v168.32a48 48 0 0 1-31.2 40.48c-60.64 25.92-66.56 75.04-52.16 112 7.2 18.24 23.2 36 132.16 36h92.48C316.96 901.44 404.16 976 510.56 976S704 901.44 709.92 807.84h96c108.96 0 124.96-17.76 132.16-36 13.76-37.28 7.84-86.4-52.8-112.32zM512 913.92c-71.36 0-129.92-48-136-108.16h272c-6.08 60.48-64.64 108.16-136 108.16zM808.64 747.2H215.36A444.16 444.16 0 0 1 144 742.72c0-9.44 5.44-16 19.2-21.6a113.44 113.44 0 0 0 72-99.36V450.88c0-144 167.68-240 198.4-251.2l21.6-8v-21.76c0-6.4 2.88-61.28 55.36-61.28h2.4c52.64 0 55.68 54.88 55.84 60.96V192l21.6 8.16c30.72 11.68 198.4 107.84 198.4 251.2v170.4a113.12 113.12 0 0 0 72 99.36c13.76 5.92 19.68 12.16 19.2 21.6a444.16 444.16 0 0 1-71.36 4.48z" p-id="4154" data-spm-anchor-id="a313x.7781069.0.i5" class="selected" fill="#1E90FF"></path></svg>